<svg preserveAspectRatio="none" viewBox="0 0 375 193" xmlns="http://www.w3.org/2000/svg" xmlns:xlink="http://www.w3.org/1999/xlink"><title>B71C9F95-AC55-45E6-9813-F83C55325D6B</title><defs><path id="a" d="M0 0h375v193H0z"/></defs><g fill="none" fill-rule="evenodd"><mask id="b" fill="#fff"><use xlink:href="#a"/></mask><use fill="#D8D8D8" xlink:href="#a"/><g mask="url(#b)"><path fill="blue" d="M0 193h374.999V0H0z"/><path d="M-25.069 24.158c-38.66.038-69.969 31.41-69.93 70.07.037 38.66 31.408 69.968 70.068 69.93l129.393-.127c3.01-.046 6.505-.203 10.86-.546 6.589-.52 13.764-1.369 21.413-2.623 21.95-3.6 44.021-9.848 65.333-19.689 29.423-13.585 54.919-32.948 74.294-59.2C299.372 50.796 311.55 12.547 311.55-31c0-38.66-31.34-70-70-70s-70 31.34-70 70c0 24.488-8.48 35.977-28.17 45.068-8.799 4.063-18.99 6.948-29.302 8.64-3.642.597-6.952.988-9.773 1.21a67.65 67.65 0 0 1-1.68.115l-127.693.125z" fill="#0072B8" fill-rule="nonzero"/><path d="M111.8 165.718c10.104 2.001 20.112 5.257 28.827 9.753 9.552 4.929 16.717 10.903 21.544 17.995 5.923 8.704 9.378 20.37 9.378 37.337 0 38.66 31.34 70 70 70s70-31.34 70-70c0-44.553-11.6-83.721-33.638-116.103-18.832-27.672-43.928-48.597-73.09-63.644-21.397-11.04-43.65-18.278-65.81-22.669-7.752-1.536-15.032-2.622-21.728-3.34-4.447-.478-8.034-.733-10.64-.835l-1.372-.054H-25c-38.66 0-70 31.34-70 70s31.34 70 70 70h126.468c3.587.38 6.792.858 10.332 1.56z" fill="#0082D2" fill-rule="nonzero"/></g></g></svg>
